ply
format ascii 1.0
comment Created by Blender 2.74 (sub 0) - www.blender.org, source file: 'marble.blend'
element vertex 289
property float x
property float y
property float z
property float nx
property float ny
property float nz
property float s
property float t
element face 512
property list uchar uint vertex_indices
end_header
0.076129 0.980785 0.179624 0.080508 0.978454 0.189978 0.749999 0.945120
0.001595 0.980785 0.195084 0.001679 0.978454 0.206336 0.687499 0.945120
0.003128 0.923880 0.382671 0.003204 0.919523 0.393017 0.687499 0.881434
0.275929 -0.707107 0.651048 0.278268 -0.701041 0.656545 0.749999 0.244568
0.005780 -0.707107 0.707083 0.005829 -0.701041 0.713065 0.687499 0.244568
0.004541 -0.831470 0.555552 0.004608 -0.825831 0.563891 0.687499 0.180881
0.324458 -0.555570 0.765551 0.325877 -0.550005 0.768944 0.749999 0.308255
0.360519 -0.382683 0.850635 0.361187 -0.378430 0.852229 0.749999 0.371941
0.007552 -0.382683 0.923849 0.007538 -0.378430 0.925565 0.687499 0.371941
0.390223 0.000000 0.920720 0.390210 0.000000 0.920713 0.749999 0.499314
0.008174 0.000000 0.999967 0.008148 0.000000 0.999939 0.687499 0.499314
0.008017 -0.195090 0.980753 0.007996 -0.192785 0.981201 0.687499 0.435628
0.382725 0.195090 0.903029 0.382885 0.192785 0.903439 0.749999 0.563001
0.360519 0.382683 0.850635 0.361187 0.378430 0.852229 0.749999 0.626687
0.007552 0.382683 0.923849 0.007538 0.378430 0.925565 0.687499 0.626687
0.275929 0.707107 0.651048 0.278268 0.701041 0.656545 0.749999 0.754061
0.005780 0.707107 0.707083 0.005829 0.701041 0.713065 0.687499 0.754061
0.006797 0.555570 0.831442 0.006806 0.550005 0.835109 0.687499 0.690374
0.149332 0.923880 0.352344 0.153356 0.919523 0.361858 0.749999 0.881434
0.004541 0.831470 0.555552 0.004608 0.825831 0.563891 0.687499 0.817747
0.149332 -0.923880 0.352344 0.153356 -0.919523 0.361858 0.749999 0.117195
0.216796 -0.831470 0.511525 0.220038 -0.825831 0.519181 0.749999 0.180881
0.006797 -0.555570 0.831442 0.006806 -0.550005 0.835109 0.687499 0.308255
0.382725 -0.195090 0.903029 0.382885 -0.192785 0.903439 0.749999 0.435628
0.008017 0.195090 0.980752 0.007996 0.192785 0.981201 0.687499 0.563001
0.324458 0.555570 0.765551 0.325877 0.550005 0.768944 0.749999 0.690374
0.216796 0.831470 0.511525 0.220038 0.825831 0.519181 0.749999 0.817747
0.076129 -0.980785 0.179623 0.080294 -0.978576 0.189459 0.749999 0.053508
0.003128 -0.923880 0.382670 0.003204 -0.919523 0.393017 0.687499 0.117195
-0.367911 0.195090 0.909165 -0.368053 0.192785 0.909574 0.624999 0.563001
-0.375119 0.000000 0.926977 -0.375103 0.000000 0.926969 0.624999 0.499314
-0.311900 0.555570 0.770753 -0.313273 0.550005 0.774163 0.624999 0.690374
-0.208405 0.831470 0.515001 -0.211524 0.825831 0.522721 0.624999 0.817747
-0.265249 0.707107 0.655472 -0.267495 0.701041 0.661031 0.624999 0.754061
0.001595 -0.980785 0.195084 0.001679 -0.978576 0.205756 0.687499 0.053508
-0.143552 -0.923880 0.354739 -0.147404 -0.919523 0.364330 0.624999 0.117195
-0.073182 0.980785 0.180844 -0.077395 0.978423 0.191412 0.624999 0.945120
-0.143552 0.923880 0.354739 -0.147404 0.919523 0.364330 0.624999 0.881434
-0.265249 -0.707107 0.655472 -0.267495 -0.701041 0.661031 0.624999 0.244568
-0.208405 -0.831470 0.515001 -0.211524 -0.825831 0.522721 0.624999 0.180881
-0.346565 -0.382683 0.856415 -0.347209 -0.378430 0.858028 0.624999 0.371941
-0.311900 -0.555570 0.770753 -0.313273 -0.550005 0.774163 0.624999 0.308255
-0.367911 -0.195090 0.909165 -0.368053 -0.192785 0.909574 0.624999 0.435628
-0.346565 0.382683 0.856415 -0.347209 0.378430 0.858028 0.624999 0.626687
-0.687828 0.195090 0.699166 -0.688131 0.192785 0.699484 0.562499 0.563001
-0.583112 0.555570 0.592724 -0.585681 0.550005 0.595355 0.562499 0.690374
-0.647920 0.382683 0.658600 -0.649129 0.378430 0.659841 0.562499 0.626687
-0.389623 0.831470 0.396046 -0.395459 0.825831 0.401990 0.562499 0.817747
-0.495896 0.707107 0.504070 -0.500076 0.701041 0.508347 0.562499 0.754061
-0.268377 -0.923880 0.272801 -0.275613 -0.919523 0.280160 0.562499 0.117195
-0.136818 -0.980785 0.139072 -0.144292 -0.978545 0.146855 0.562499 0.053508
-0.136818 0.980785 0.139073 -0.144688 0.978454 0.147069 0.562499 0.945120
-0.268377 0.923880 0.272801 -0.275613 0.919523 0.280160 0.562499 0.881434
-0.495896 -0.707107 0.504070 -0.500076 -0.701041 0.508347 0.562499 0.244568
-0.647920 -0.382683 0.658600 -0.649129 -0.378430 0.659841 0.562499 0.371941
-0.583112 -0.555570 0.592724 -0.585681 -0.550005 0.595355 0.562499 0.308255
-0.701303 0.000000 0.712863 -0.701285 0.000000 0.712851 0.562499 0.499314
-0.687828 -0.195090 0.699166 -0.688131 -0.192785 0.699484 0.562499 0.435628
-0.389623 -0.831470 0.396046 -0.395459 -0.825831 0.401990 0.562499 0.180881
-0.903029 0.195090 0.382725 -0.903439 0.192785 0.382885 0.499999 0.563001
-0.765551 0.555570 0.324458 -0.768944 0.550005 0.325877 0.499999 0.690374
-0.850635 0.382683 0.360519 -0.852229 0.378430 0.361187 0.499999 0.626687
-0.511525 0.831470 0.216796 -0.519181 0.825831 0.220038 0.499999 0.817747
-0.651048 0.707107 0.275929 -0.656575 0.701041 0.278268 0.499999 0.754061
-0.352345 -0.923880 0.149332 -0.361858 -0.919523 0.153356 0.499999 0.117195
-0.179624 -0.980785 0.076128 -0.189459 -0.978576 0.080294 0.499999 0.053508
-0.179624 0.980785 0.076128 -0.189978 0.978454 0.080508 0.499999 0.945120
-0.352345 0.923880 0.149332 -0.361858 0.919523 0.153356 0.499999 0.881434
-0.651048 -0.707107 0.275929 -0.656575 -0.701041 0.278268 0.499999 0.244568
-0.850635 -0.382683 0.360519 -0.852229 -0.378430 0.361187 0.499999 0.371941
-0.765551 -0.555570 0.324458 -0.768944 -0.550005 0.325877 0.499999 0.308255
-0.920721 0.000000 0.390223 -0.920713 0.000000 0.390210 0.499999 0.499314
-0.903029 -0.195090 0.382725 -0.903439 -0.192785 0.382885 0.499999 0.435628
-0.511525 -0.831470 0.216796 -0.519181 -0.825831 0.220038 0.499999 0.180881
-0.980753 0.195090 0.008017 -0.981201 0.192785 0.007996 0.437499 0.563001
-0.831442 0.555570 0.006796 -0.835109 0.550005 0.006806 0.437499 0.690374
-0.923849 0.382683 0.007552 -0.925565 0.378430 0.007538 0.437499 0.626687
-0.555552 0.831470 0.004541 -0.563891 0.825831 0.004608 0.437499 0.817747
-0.707083 0.707107 0.005780 -0.713065 0.701041 0.005829 0.437499 0.754060
-0.382671 -0.923880 0.003128 -0.393017 -0.919523 0.003204 0.437499 0.117195
-0.195084 -0.980785 0.001594 -0.205756 -0.978576 0.001770 0.437499 0.053508
-0.195084 0.980785 0.001594 -0.206336 0.978454 0.001617 0.437499 0.945120
-0.382671 0.923880 0.003128 -0.393017 0.919523 0.003204 0.437499 0.881434
-0.707083 -0.707107 0.005780 -0.713065 -0.701041 0.005829 0.437499 0.244568
-0.923849 -0.382683 0.007552 -0.925565 -0.378430 0.007538 0.437499 0.371941
-0.831442 -0.555570 0.006796 -0.835109 -0.550005 0.006806 0.437499 0.308255
-0.999967 0.000000 0.008174 -0.999939 0.000000 0.008148 0.437499 0.499314
-0.980753 -0.195090 0.008017 -0.981201 -0.192785 0.007996 0.437499 0.435628
-0.555552 -0.831470 0.004541 -0.563891 -0.825831 0.004608 0.437499 0.180881
-0.909166 0.195090 -0.367911 -0.909574 0.192785 -0.368053 0.374999 0.563001
-0.770753 0.555570 -0.311900 -0.774163 0.550005 -0.313273 0.374999 0.690374
-0.856415 0.382683 -0.346565 -0.858028 0.378430 -0.347209 0.374999 0.626687
-0.515001 0.831470 -0.208405 -0.522721 0.825831 -0.211524 0.374999 0.817747
-0.655472 0.707107 -0.265249 -0.661031 0.701041 -0.267495 0.374999 0.754060
-0.354739 -0.923880 -0.143552 -0.364330 -0.919523 -0.147404 0.374999 0.117195
-0.180844 -0.980785 -0.073182 -0.190741 -0.978576 -0.077181 0.374999 0.053508
-0.180845 0.980785 -0.073182 -0.191260 0.978454 -0.077395 0.374999 0.945120
-0.354739 0.923880 -0.143552 -0.364330 0.919523 -0.147404 0.374999 0.881434
-0.655472 -0.707107 -0.265249 -0.661031 -0.701041 -0.267495 0.374999 0.244568
-0.856415 -0.382683 -0.346565 -0.858028 -0.378430 -0.347209 0.374999 0.371941
-0.770753 -0.555570 -0.311900 -0.774163 -0.550005 -0.313273 0.374999 0.308255
-0.926977 0.000000 -0.375119 -0.926969 0.000000 -0.375103 0.374999 0.499314
-0.909166 -0.195090 -0.367911 -0.909574 -0.192785 -0.368053 0.374999 0.435628
-0.515001 -0.831470 -0.208405 -0.522721 -0.825831 -0.211524 0.374999 0.180881
-0.699166 0.195090 -0.687828 -0.699484 0.192785 -0.688131 0.312499 0.563001
-0.592724 0.555570 -0.583113 -0.595325 0.550005 -0.585681 0.312499 0.690374
-0.658600 0.382683 -0.647920 -0.659841 0.378430 -0.649129 0.312499 0.626687
-0.396046 0.831470 -0.389624 -0.401990 0.825831 -0.395459 0.312499 0.817747
-0.504071 0.707107 -0.495896 -0.508347 0.701041 -0.500076 0.312499 0.754060
-0.272801 -0.923880 -0.268378 -0.280160 -0.919523 -0.275613 0.312499 0.117195
-0.139073 -0.980785 -0.136818 -0.146672 -0.978576 -0.144292 0.312499 0.053508
-0.139073 0.980785 -0.136818 -0.147069 0.978454 -0.144688 0.312499 0.945120
-0.272801 0.923880 -0.268378 -0.280160 0.919523 -0.275613 0.312499 0.881434
-0.504071 -0.707107 -0.495896 -0.508347 -0.701041 -0.500076 0.312499 0.244568
-0.658600 -0.382683 -0.647920 -0.659841 -0.378430 -0.649129 0.312499 0.371941
-0.592724 -0.555570 -0.583113 -0.595355 -0.550005 -0.585681 0.312499 0.308255
-0.712863 0.000000 -0.701303 -0.712851 0.000000 -0.701285 0.312499 0.499314
-0.699166 -0.195090 -0.687828 -0.699484 -0.192785 -0.688131 0.312499 0.435628
-0.396046 -0.831470 -0.389624 -0.401990 -0.825831 -0.395459 0.312499 0.180881
-0.382725 0.195090 -0.903030 -0.382885 0.192785 -0.903439 0.250000 0.563001
-0.324458 0.555570 -0.765552 -0.325877 0.550005 -0.768944 0.250000 0.690374
-0.360519 0.382683 -0.850635 -0.361187 0.378430 -0.852229 0.250000 0.626687
-0.216796 0.831470 -0.511525 -0.220038 0.825831 -0.519181 0.250000 0.817747
-0.275929 0.707107 -0.651048 -0.278268 0.701041 -0.656575 0.250000 0.754060
-0.149332 -0.923880 -0.352345 -0.153356 -0.919523 -0.361858 0.249999 0.117195
-0.076129 -0.980785 -0.179624 -0.080294 -0.978576 -0.189459 0.250000 0.053508
-0.076129 0.980785 -0.179624 -0.080508 0.978454 -0.189978 0.249999 0.945120
-0.149332 0.923880 -0.352345 -0.153356 0.919523 -0.361858 0.250000 0.881434
-0.275929 -0.707107 -0.651048 -0.278268 -0.701041 -0.656575 0.250000 0.244568
-0.360519 -0.382683 -0.850635 -0.361187 -0.378430 -0.852229 0.250000 0.371941
-0.324458 -0.555570 -0.765552 -0.325877 -0.550005 -0.768944 0.250000 0.308255
-0.390223 0.000000 -0.920721 -0.390210 0.000000 -0.920713 0.250000 0.499314
-0.382725 -0.195090 -0.903030 -0.382885 -0.192785 -0.903439 0.250000 0.435628
-0.216796 -0.831470 -0.511525 -0.220038 -0.825831 -0.519181 0.250000 0.180881
-0.008017 0.195090 -0.980753 -0.007996 0.192785 -0.981201 0.187500 0.563001
-0.006797 0.555570 -0.831442 -0.006806 0.550005 -0.835109 0.187500 0.690374
-0.007552 0.382683 -0.923849 -0.007538 0.378430 -0.925565 0.187500 0.626687
-0.004541 0.831470 -0.555552 -0.004608 0.825831 -0.563891 0.187500 0.817747
-0.005780 0.707107 -0.707083 -0.005829 0.701041 -0.713065 0.187500 0.754061
-0.003128 -0.923880 -0.382671 -0.003204 -0.919523 -0.393017 0.187500 0.117195
-0.001595 -0.980785 -0.195084 -0.001679 -0.978576 -0.205756 0.187500 0.053508
-0.001595 0.980785 -0.195084 -0.001679 0.978454 -0.206336 0.187500 0.945120
-0.003128 0.923880 -0.382671 -0.003204 0.919523 -0.393017 0.187500 0.881434
-0.005780 -0.707107 -0.707083 -0.005799 -0.701041 -0.713065 0.187500 0.244568
-0.007552 -0.382683 -0.923849 -0.007538 -0.378430 -0.925565 0.187500 0.371941
-0.008174 0.000000 -0.999967 -0.008148 0.000000 -0.999939 0.187500 0.499314
-0.008017 -0.195090 -0.980753 -0.007996 -0.192785 -0.981201 0.187500 0.435628
-0.004541 -0.831470 -0.555552 -0.004608 -0.825831 -0.563891 0.187500 0.180881
-0.006797 -0.555570 -0.831442 -0.006806 -0.550005 -0.835109 0.187500 0.308255
0.367911 0.195090 -0.909166 0.368053 0.192785 -0.909574 0.125000 0.563001
0.311900 0.555570 -0.770753 0.313273 0.550005 -0.774163 0.125000 0.690374
0.346564 0.382683 -0.856415 0.347209 0.378430 -0.858028 0.125000 0.626687
0.208405 0.831470 -0.515001 0.211524 0.825831 -0.522721 0.125000 0.817747
0.265249 0.707107 -0.655472 0.267495 0.701041 -0.661031 0.125000 0.754061
0.143552 -0.923880 -0.354739 0.147404 -0.919523 -0.364330 0.125000 0.117195
0.073182 -0.980785 -0.180845 0.077181 -0.978607 -0.190680 0.125000 0.053508
0.073182 0.980785 -0.180845 0.077395 0.978454 -0.191260 0.125000 0.945120
0.143552 0.923880 -0.354739 0.147404 0.919523 -0.364330 0.125000 0.881434
0.265249 -0.707107 -0.655472 0.267495 -0.701041 -0.661031 0.125000 0.244568
0.346564 -0.382683 -0.856415 0.347209 -0.378430 -0.858028 0.125000 0.371941
0.375119 0.000000 -0.926977 0.375103 0.000000 -0.926969 0.125000 0.499314
0.367911 -0.195090 -0.909166 0.368053 -0.192785 -0.909574 0.125000 0.435628
0.208405 -0.831470 -0.515001 0.211524 -0.825831 -0.522721 0.125000 0.180881
0.311900 -0.555570 -0.770753 0.313273 -0.550005 -0.774163 0.125000 0.308255
0.687828 0.195090 -0.699166 0.688131 0.192785 -0.699484 0.062500 0.563001
0.583112 0.555570 -0.592724 0.585681 0.550005 -0.595325 0.062500 0.690374
0.647920 0.382683 -0.658600 0.649129 0.378430 -0.659841 0.062500 0.626687
0.389623 0.831470 -0.396046 0.395459 0.825831 -0.401990 0.062500 0.817747
0.495896 0.707107 -0.504071 0.500076 0.701041 -0.508347 0.062500 0.754061
0.268377 -0.923880 -0.272801 0.275613 -0.919523 -0.280160 0.062500 0.117195
0.136817 -0.980785 -0.139073 0.144292 -0.978607 -0.146611 0.062500 0.053508
0.136818 0.980785 -0.139073 0.144688 0.978484 -0.147038 0.062500 0.945120
0.268377 0.923880 -0.272801 0.275613 0.919523 -0.280160 0.062500 0.881434
0.495896 -0.707107 -0.504071 0.500076 -0.701041 -0.508347 0.062500 0.244568
0.647920 -0.382683 -0.658600 0.649129 -0.378430 -0.659841 0.062500 0.371941
0.701303 0.000000 -0.712864 0.701285 0.000000 -0.712851 0.062500 0.499314
0.687828 -0.195090 -0.699166 0.688131 -0.192785 -0.699484 0.062500 0.435628
0.389623 -0.831470 -0.396046 0.395459 -0.825831 -0.401990 0.062500 0.180881
0.583112 -0.555570 -0.592724 0.585681 -0.550005 -0.595355 0.062500 0.308255
0.903029 0.195090 -0.382725 0.903439 0.192785 -0.382885 0.000000 0.563001
0.765551 0.555570 -0.324458 0.768944 0.550005 -0.325877 0.000000 0.690374
0.850635 0.382683 -0.360519 0.852229 0.378430 -0.361187 0.000000 0.626687
0.511525 0.831470 -0.216796 0.519181 0.825831 -0.220038 0.000000 0.817747
0.651048 0.707107 -0.275929 0.656575 0.701041 -0.278268 0.000000 0.754061
0.352345 -0.923880 -0.149332 0.361858 -0.919523 -0.153356 0.000000 0.117195
0.179624 -0.980785 -0.076129 0.189459 -0.978576 -0.080294 0.000000 0.053508
0.179624 0.980785 -0.076129 0.189978 0.978484 -0.080416 0.000000 0.945120
0.352345 0.923880 -0.149332 0.361858 0.919523 -0.153356 0.000000 0.881434
0.651048 -0.707107 -0.275929 0.656575 -0.701041 -0.278268 0.000000 0.244568
0.850635 -0.382683 -0.360519 0.852229 -0.378430 -0.361187 0.000000 0.371941
0.920721 0.000000 -0.390223 0.920713 0.000000 -0.390210 0.000000 0.499314
0.903029 -0.195090 -0.382725 0.903439 -0.192785 -0.382885 0.000000 0.435628
0.511525 -0.831470 -0.216796 0.519181 -0.825831 -0.220038 0.000000 0.180881
0.765551 -0.555570 -0.324458 0.768944 -0.550005 -0.325877 0.000000 0.308255
0.920721 0.000000 -0.390223 0.920713 0.000000 -0.390210 0.999998 0.499314
0.903029 0.195090 -0.382725 0.903439 0.192785 -0.382885 0.999998 0.563001
0.980752 0.195090 -0.008017 0.981201 0.192785 -0.007996 0.937498 0.563001
0.765551 0.555570 -0.324458 0.768944 0.550005 -0.325877 0.999998 0.690374
0.831442 0.555570 -0.006797 0.835109 0.550005 -0.006806 0.937498 0.690374
0.923849 0.382683 -0.007552 0.925565 0.378430 -0.007538 0.937498 0.626687
0.511525 0.831470 -0.216796 0.519181 0.825831 -0.220038 0.999998 0.817747
0.555552 0.831470 -0.004542 0.563891 0.825831 -0.004608 0.937498 0.817747
0.707083 0.707107 -0.005780 0.713065 0.701041 -0.005799 0.937498 0.754061
0.352345 -0.923880 -0.149332 0.361858 -0.919523 -0.153356 0.999998 0.117195
0.382671 -0.923880 -0.003128 0.393017 -0.919523 -0.003204 0.937498 0.117195
0.195084 -0.980785 -0.001595 0.205756 -0.978576 -0.001587 0.937499 0.053508
0.179624 0.980785 -0.076129 0.189978 0.978484 -0.080416 0.999998 0.945120
0.195084 0.980785 -0.001595 0.206336 0.978454 -0.001679 0.937499 0.945120
0.382671 0.923880 -0.003128 0.393017 0.919523 -0.003204 0.937498 0.881434
0.511525 -0.831470 -0.216796 0.519181 -0.825831 -0.220038 0.999998 0.180881
0.651048 -0.707107 -0.275929 0.656575 -0.701041 -0.278268 0.999998 0.244568
0.707083 -0.707107 -0.005780 0.713065 -0.701041 -0.005829 0.937498 0.244568
0.765551 -0.555570 -0.324458 0.768944 -0.550005 -0.325877 0.999998 0.308255
0.850635 -0.382683 -0.360519 0.852229 -0.378430 -0.361187 0.999998 0.371941
0.923849 -0.382683 -0.007552 0.925565 -0.378430 -0.007538 0.937498 0.371941
0.999967 0.000000 -0.008174 0.999939 0.000000 -0.008148 0.937498 0.499314
0.980752 -0.195090 -0.008017 0.981201 -0.192785 -0.007996 0.937498 0.435628
0.850635 0.382683 -0.360519 0.852229 0.378430 -0.361187 0.999998 0.626687
0.651048 0.707107 -0.275929 0.656575 0.701041 -0.278268 0.999998 0.754061
0.352345 0.923880 -0.149332 0.361858 0.919523 -0.153356 0.999998 0.881434
0.555552 -0.831470 -0.004542 0.563891 -0.825831 -0.004608 0.937498 0.180881
0.831442 -0.555570 -0.006797 0.835109 -0.550005 -0.006806 0.937498 0.308254
0.903029 -0.195090 -0.382725 0.903439 -0.192785 -0.382885 0.999998 0.435628
0.909165 0.195090 0.367911 0.909574 0.192785 0.368053 0.874998 0.563001
0.770753 0.555570 0.311900 0.774163 0.550005 0.313273 0.874998 0.690374
0.856415 0.382683 0.346564 0.858028 0.378430 0.347209 0.874998 0.626687
0.515001 0.831470 0.208405 0.522721 0.825831 0.211524 0.874998 0.817747
0.655471 0.707107 0.265249 0.661031 0.701041 0.267495 0.874998 0.754061
0.354739 -0.923880 0.143552 0.364330 -0.919523 0.147404 0.874998 0.117195
0.180844 -0.980785 0.073182 0.190741 -0.978576 0.077181 0.874999 0.053508
0.180844 0.980785 0.073182 0.191260 0.978454 0.077548 0.874999 0.945120
0.354739 0.923880 0.143551 0.364330 0.919523 0.147404 0.874998 0.881434
0.655471 -0.707107 0.265249 0.661031 -0.701041 0.267495 0.874998 0.244568
0.856415 -0.382683 0.346564 0.858028 -0.378430 0.347209 0.874998 0.371941
0.926977 0.000000 0.375119 0.926969 0.000000 0.375103 0.874998 0.499314
0.909165 -0.195090 0.367911 0.909574 -0.192785 0.368053 0.874998 0.435628
0.515001 -0.831470 0.208405 0.522721 -0.825831 0.211524 0.874998 0.180881
0.770753 -0.555570 0.311900 0.774163 -0.550005 0.313273 0.874998 0.308254
0.699165 0.195090 0.687827 0.699484 0.192785 0.688131 0.812499 0.563001
0.592724 0.555570 0.583112 0.595355 0.550005 0.585681 0.812498 0.690374
0.658599 0.382683 0.647920 0.659841 0.378430 0.649129 0.812499 0.626687
0.396045 0.831470 0.389623 0.401990 0.825831 0.395459 0.812499 0.817747
0.504070 0.707107 0.495896 0.508347 0.701041 0.500076 0.812499 0.754061
0.272801 -0.923880 0.268377 0.280160 -0.919523 0.275613 0.812499 0.117195
0.139073 -0.980785 0.136817 0.146672 -0.978576 0.144292 0.812499 0.053508
0.139073 0.980785 0.136817 0.147069 0.978454 0.144688 0.812499 0.945120
0.272801 0.923880 0.268377 0.280160 0.919523 0.275613 0.812499 0.881434
0.504070 -0.707107 0.495896 0.508347 -0.701041 0.500076 0.812499 0.244568
0.658599 -0.382683 0.647919 0.659841 -0.378430 0.649129 0.812499 0.371941
0.712863 0.000000 0.701303 0.712851 0.000000 0.701285 0.812499 0.499314
0.699165 -0.195090 0.687827 0.699484 -0.192785 0.688131 0.812499 0.435628
0.396045 -0.831470 0.389623 0.401990 -0.825831 0.395459 0.812499 0.180881
0.592724 -0.555570 0.583112 0.595355 -0.550005 0.585681 0.812498 0.308254
-0.000000 -0.999521 -0.000000 0.007599 -0.141606 0.989868 0.125001 0.000000
-0.000000 -0.999521 -0.000000 -0.000305 -0.434797 0.900510 0.187500 0.000000
-0.000000 -0.999521 -0.000000 -0.027894 -0.292215 0.955931 0.499998 0.000000
-0.000000 -0.999521 -0.000000 0.000000 0.000000 1.000000 0.562498 0.000000
-0.000000 -0.999521 -0.000000 -0.005829 -0.108493 0.994079 0.624998 0.000000
-0.000000 -0.999521 -0.000000 -0.003662 -0.130070 0.991485 0.249999 0.000000
-0.000000 -0.999521 -0.000000 0.043580 -0.084658 0.995453 0.937500 0.000000
-0.000000 -0.999521 -0.000000 -0.000305 0.586810 0.809717 1.000000 0.000000
-0.073182 -0.980785 0.180844 -0.077181 -0.978576 0.190771 0.624999 0.053508
-0.000000 -0.999521 -0.000000 -0.002747 0.857601 0.514298 0.687498 0.000000
-0.000000 -0.999521 -0.000000 0.000000 0.000000 1.000000 0.312499 0.000000
-0.000000 -0.999521 -0.000000 0.030213 0.248543 0.968139 0.374998 0.000000
-0.000000 -0.999521 -0.000000 0.000000 0.000000 1.000000 0.812499 0.000000
-0.000000 -0.999521 -0.000000 0.037263 -0.455336 -0.889523 0.875000 0.000000
-0.000000 -0.999521 -0.000000 -0.000305 0.586810 0.809717 0.000002 0.000000
-0.000000 -0.999521 -0.000000 0.058596 -0.723869 0.687399 0.062501 0.000000
-0.000000 -0.999521 -0.000000 0.074160 -0.651326 0.755150 0.749999 0.000000
-0.000000 -0.999521 -0.000000 0.061464 0.645375 0.761345 0.437498 0.000000
-0.000000 0.999786 -0.000000 0.000000 -1.000000 0.000000 0.249999 1.000000
-0.000000 0.999786 -0.000000 -0.020051 0.995117 -0.096469 0.187500 1.000000
-0.000000 0.999786 -0.000000 -0.040071 0.735496 -0.676321 0.562497 1.000000
-0.000000 0.999786 -0.000000 -0.059450 0.724113 -0.687094 0.499997 1.000000
-0.000000 0.999786 -0.000000 0.010163 0.278634 0.960326 0.125001 1.000000
-0.000000 0.999786 -0.000000 0.009003 0.108768 0.994018 0.812499 1.000000
-0.000000 0.999786 -0.000000 0.017151 -0.687521 0.725913 0.749999 1.000000
-0.000000 0.999786 -0.000000 0.016694 -0.083865 -0.996307 0.437498 1.000000
-0.000000 0.999786 -0.000000 -0.031770 -0.702963 0.710471 0.937500 1.000000
-0.000000 0.999786 -0.000000 -0.027161 0.317972 0.947691 0.374998 1.000000
-0.000000 0.999786 -0.000000 0.009033 0.110080 0.993866 0.062501 1.000000
-0.000000 0.999786 -0.000000 0.000000 0.000000 1.000000 0.875000 1.000000
-0.000000 0.999786 -0.000000 -0.016938 0.244179 0.969573 0.312499 1.000000
-0.000000 0.999786 -0.000000 -0.004028 -0.441328 0.897305 0.687498 1.000000
-0.000000 0.999786 -0.000000 -0.038148 -0.707907 0.705252 1.000000 1.000000
-0.000000 0.999786 -0.000000 0.000000 0.000000 1.000000 0.624998 1.000000
0.179624 -0.980785 -0.076129 0.189459 -0.978576 -0.080294 0.999998 0.053508
-0.000000 0.999786 -0.000000 -0.038148 -0.707907 0.705252 0.000002 1.000000
3 0 1 2
3 3 4 5
3 6 7 8
3 9 10 11
3 12 13 14
3 15 16 17
3 18 2 19
3 20 21 5
3 6 22 4
3 23 11 8
3 12 24 10
3 25 17 14
3 26 19 16
3 27 20 28
3 24 29 30
3 14 17 31
3 19 32 33
3 34 28 35
3 1 36 37
3 4 38 39
3 8 40 41
3 10 30 42
3 24 14 43
3 17 16 33
3 2 37 32
3 28 5 39
3 22 41 38
3 8 11 42
3 30 29 44
3 31 45 46
3 32 47 48
3 35 49 50
3 36 51 52
3 39 38 53
3 40 54 55
3 30 56 57
3 43 46 44
3 33 48 45
3 37 52 47
3 35 39 58
3 38 41 55
3 40 42 57
3 56 44 59
3 45 60 61
3 47 62 63
3 49 64 65
3 51 66 67
3 58 53 68
3 54 69 70
3 56 71 72
3 46 61 59
3 48 63 60
3 52 67 62
3 49 58 73
3 53 55 70
3 54 57 72
3 71 59 74
3 60 75 76
3 62 77 78
3 64 79 80
3 66 81 82
3 73 68 83
3 69 84 85
3 71 86 87
3 61 76 74
3 63 78 75
3 67 82 77
3 64 73 88
3 70 85 83
3 69 72 87
3 86 74 89
3 75 90 91
3 77 92 93
3 79 94 95
3 81 96 97
3 88 83 98
3 84 99 100
3 86 101 102
3 76 91 89
3 75 78 93
3 82 97 92
3 79 88 103
3 85 100 98
3 84 87 102
3 101 89 104
3 90 105 106
3 92 107 108
3 94 109 110
3 96 111 112
3 103 98 113
3 99 114 115
3 101 116 117
3 91 106 104
3 90 93 108
3 97 112 107
3 94 103 118
3 100 115 113
3 99 102 117
3 116 104 119
3 105 120 121
3 107 122 123
3 109 124 125
3 111 126 127
3 118 113 128
3 114 129 130
3 116 131 132
3 106 121 119
3 105 108 123
3 112 127 122
3 109 118 133
3 115 130 128
3 114 117 132
3 131 119 134
3 120 135 136
3 122 137 138
3 124 139 140
3 126 141 142
3 133 128 143
3 130 129 144
3 131 145 146
3 121 136 134
3 120 123 138
3 127 142 137
3 124 133 147
3 130 148 143
3 129 132 146
3 145 134 149
3 135 150 151
3 137 152 153
3 139 154 155
3 141 156 157
3 147 143 158
3 148 144 159
3 145 160 161
3 136 151 149
3 135 138 153
3 142 157 152
3 139 147 162
3 148 163 158
3 144 146 161
3 160 149 164
3 150 165 166
3 152 167 168
3 154 169 170
3 156 171 172
3 162 158 173
3 163 159 174
3 160 175 176
3 151 166 164
3 150 153 168
3 152 157 172
3 154 162 177
3 163 178 173
3 159 161 176
3 175 164 179
3 165 180 181
3 167 182 183
3 169 184 185
3 171 186 187
3 177 173 188
3 178 174 189
3 175 190 191
3 166 181 179
3 165 168 183
3 167 172 187
3 169 177 192
3 178 193 188
3 174 176 191
3 194 195 196
3 197 198 199
3 200 201 202
3 203 204 205
3 206 207 208
3 209 210 211
3 212 213 214
3 194 215 216
3 217 199 196
3 197 218 202
3 200 219 208
3 203 209 220
3 212 221 211
3 213 222 216
3 215 196 223
3 198 224 225
3 201 226 227
3 204 228 229
3 207 230 231
3 220 211 232
3 221 214 233
3 215 234 235
3 199 225 223
3 198 202 227
3 201 208 231
3 204 220 236
3 221 237 232
3 214 216 235
3 234 223 238
3 224 239 240
3 226 241 242
3 228 243 244
3 230 245 246
3 236 232 247
3 237 233 248
3 234 249 250
3 225 240 238
3 224 227 242
3 226 231 246
3 236 251 243
3 237 252 247
3 233 235 250
3 155 253 254
3 50 65 255
3 125 140 254
3 50 256 257
3 110 125 258
3 205 259 260
3 261 257 262
3 110 263 264
3 244 265 266
3 185 267 268
3 80 95 264
3 229 266 259
3 170 268 253
3 34 262 269
3 80 270 255
3 249 238 12
3 239 25 13
3 242 241 26
3 243 20 27
3 246 245 0
3 247 3 21
3 248 7 6
3 249 9 23
3 240 13 12
3 239 242 15
3 244 27 269
3 241 246 18
3 251 21 20
3 252 6 3
3 250 23 7
3 126 271 272
3 51 273 274
3 141 272 275
3 245 276 277
3 66 274 278
3 171 156 275
3 230 207 279
3 81 278 280
3 186 171 281
3 230 282 276
3 96 280 283
3 36 1 284
3 207 206 285
3 126 111 283
3 1 0 277
3 36 286 273
3 18 0 2
3 21 3 5
3 22 6 8
3 23 9 11
3 24 12 14
3 25 15 17
3 26 18 19
3 28 20 5
3 3 6 4
3 7 23 8
3 9 12 10
3 13 25 14
3 15 26 16
3 34 27 28
3 10 24 30
3 43 14 31
3 16 19 33
3 261 34 35
3 2 1 37
3 5 4 39
3 22 8 41
3 11 10 42
3 29 24 43
3 31 17 33
3 19 2 32
3 35 28 39
3 4 22 38
3 40 8 42
3 56 30 44
3 43 31 46
3 33 32 48
3 261 35 50
3 37 36 52
3 58 39 53
3 41 40 55
3 42 30 57
3 29 43 44
3 31 33 45
3 32 37 47
3 49 35 58
3 53 38 55
3 54 40 57
3 71 56 59
3 46 45 61
3 48 47 63
3 50 49 65
3 52 51 67
3 73 58 68
3 55 54 70
3 57 56 72
3 44 46 59
3 45 48 60
3 47 52 62
3 64 49 73
3 68 53 70
3 69 54 72
3 86 71 74
3 61 60 76
3 63 62 78
3 65 64 80
3 67 66 82
3 88 73 83
3 70 69 85
3 72 71 87
3 59 61 74
3 60 63 75
3 62 67 77
3 79 64 88
3 68 70 83
3 84 69 87
3 101 86 89
3 76 75 91
3 78 77 93
3 80 79 95
3 82 81 97
3 103 88 98
3 85 84 100
3 87 86 102
3 74 76 89
3 90 75 93
3 77 82 92
3 94 79 103
3 83 85 98
3 99 84 102
3 116 101 104
3 91 90 106
3 93 92 108
3 95 94 110
3 97 96 112
3 118 103 113
3 100 99 115
3 102 101 117
3 89 91 104
3 105 90 108
3 92 97 107
3 109 94 118
3 98 100 113
3 114 99 117
3 131 116 119
3 106 105 121
3 108 107 123
3 110 109 125
3 112 111 127
3 133 118 128
3 115 114 130
3 117 116 132
3 104 106 119
3 120 105 123
3 107 112 122
3 124 109 133
3 113 115 128
3 129 114 132
3 145 131 134
3 121 120 136
3 123 122 138
3 125 124 140
3 127 126 142
3 147 133 143
3 148 130 144
3 132 131 146
3 119 121 134
3 135 120 138
3 122 127 137
3 139 124 147
3 128 130 143
3 144 129 146
3 160 145 149
3 136 135 151
3 138 137 153
3 140 139 155
3 142 141 157
3 162 147 158
3 163 148 159
3 146 145 161
3 134 136 149
3 150 135 153
3 137 142 152
3 154 139 162
3 143 148 158
3 159 144 161
3 175 160 164
3 151 150 166
3 153 152 168
3 155 154 170
3 157 156 172
3 177 162 173
3 178 163 174
3 161 160 176
3 149 151 164
3 165 150 168
3 167 152 172
3 169 154 177
3 158 163 173
3 174 159 176
3 190 175 179
3 166 165 181
3 168 167 183
3 170 169 185
3 172 171 187
3 192 177 188
3 193 178 189
3 176 175 191
3 164 166 179
3 180 165 183
3 182 167 187
3 184 169 192
3 173 178 188
3 189 174 191
3 215 194 196
3 217 197 199
3 218 200 202
3 287 203 205
3 219 206 208
3 220 209 211
3 221 212 214
3 222 194 216
3 195 217 196
3 198 197 202
3 201 200 208
3 204 203 220
3 210 212 211
3 214 213 216
3 234 215 223
3 199 198 225
3 202 201 227
3 205 204 229
3 208 207 231
3 236 220 232
3 237 221 233
3 216 215 235
3 196 199 223
3 224 198 227
3 226 201 231
3 228 204 236
3 211 221 232
3 233 214 235
3 249 234 238
3 225 224 240
3 227 226 242
3 229 228 244
3 231 230 246
3 251 236 247
3 252 237 248
3 235 234 250
3 223 225 238
3 239 224 242
3 241 226 246
3 228 236 243
3 232 237 247
3 248 233 250
3 140 155 254
3 256 50 255
3 258 125 254
3 261 50 257
3 263 110 258
3 287 205 260
3 34 261 262
3 95 110 264
3 229 244 266
3 170 185 268
3 270 80 264
3 205 229 259
3 155 170 253
3 27 34 269
3 65 80 255
3 9 249 12
3 240 239 13
3 15 242 26
3 244 243 27
3 18 246 0
3 251 247 21
3 252 248 6
3 250 249 23
3 238 240 12
3 25 239 15
3 265 244 269
3 26 241 18
3 243 251 20
3 247 252 3
3 248 250 7
3 141 126 272
3 66 51 274
3 156 141 275
3 0 245 277
3 81 66 278
3 281 171 275
3 282 230 279
3 96 81 280
3 288 186 281
3 245 230 276
3 111 96 283
3 286 36 284
3 279 207 285
3 271 126 283
3 284 1 277
3 51 36 273
