ply
format ascii 1.0
comment Created by Blender 2.74 (sub 0) - www.blender.org, source file: 'marble.blend'
element vertex 259
property float x
property float y
property float z
property float nx
property float ny
property float nz
property float s
property float t
element face 480
property list uchar uint vertex_indices
end_header
-0.980785 -0.195090 0.000000 -0.981231 -0.192785 0.000000 0.749675 0.437500
-0.906127 -0.195090 -0.375330 -0.906522 -0.192785 -0.375500 0.687335 0.437500
-0.853553 -0.382683 -0.353554 -0.855159 -0.378430 -0.354198 0.687335 0.375000
-0.980785 0.195090 0.000000 -0.981231 0.192785 0.000000 0.749675 0.562500
-0.906127 0.195090 -0.375330 -0.906522 0.192785 -0.375500 0.687335 0.562500
-0.923880 0.000000 -0.382684 -0.923856 0.000000 -0.382672 0.687335 0.500000
-0.831470 0.555570 0.000000 -0.835139 0.550005 0.000000 0.749675 0.687500
-0.768178 0.555570 -0.318190 -0.771569 0.550005 -0.319590 0.687335 0.687500
-0.853553 0.382683 -0.353554 -0.855159 0.378430 -0.354198 0.687335 0.625000
-0.555570 0.831470 0.000000 -0.563891 0.825831 0.000000 0.749675 0.812500
-0.513280 0.831470 -0.212608 -0.520981 0.825831 -0.215796 0.687335 0.812500
-0.653281 0.707107 -0.270598 -0.658803 0.701041 -0.272866 0.687335 0.750000
-0.195090 -0.980785 0.000000 -0.206793 -0.978362 0.000000 0.749675 0.062500
-0.382683 -0.923880 0.000000 -0.393017 -0.919523 0.000000 0.749675 0.125000
-0.353553 -0.923880 -0.146447 -0.363109 -0.919523 -0.150395 0.687335 0.125000
-0.195090 0.980785 0.000000 -0.206793 0.978362 0.000000 0.749675 0.937500
-0.180240 0.980785 -0.074658 -0.191046 0.978362 -0.079134 0.687335 0.937500
-0.353553 0.923880 -0.146447 -0.363109 0.919523 -0.150395 0.687335 0.875000
-0.707107 -0.707107 0.000000 -0.713095 -0.701041 0.000000 0.749675 0.250000
-0.653281 -0.707107 -0.270598 -0.658803 -0.701041 -0.272866 0.687335 0.250000
-0.513280 -0.831470 -0.212608 -0.520981 -0.825831 -0.215796 0.687335 0.187500
-0.831470 -0.555570 0.000000 -0.835139 -0.550005 0.000000 0.749675 0.312500
-0.923880 -0.382683 0.000000 -0.925596 -0.378430 0.000000 0.749675 0.375000
-1.000000 0.000000 0.000000 -1.000000 0.000000 0.000000 0.749675 0.500000
-0.923880 0.382683 0.000000 -0.925596 0.378430 0.000000 0.749675 0.625000
-0.707107 0.707107 0.000000 -0.713095 0.701041 0.000000 0.749675 0.750000
-0.382683 0.923880 0.000000 -0.393017 0.919523 0.000000 0.749675 0.875000
-0.555570 -0.831470 0.000000 -0.563891 -0.825831 0.000000 0.749675 0.187500
-0.768178 -0.555570 -0.318190 -0.771569 -0.550005 -0.319590 0.687335 0.312500
-0.500000 0.707107 -0.500000 -0.504227 0.701041 -0.504227 0.624994 0.750000
-0.270598 0.923880 -0.270598 -0.277902 0.919523 -0.277902 0.624994 0.875000
-0.392847 0.831470 -0.392848 -0.398724 0.825831 -0.398724 0.624994 0.812500
-0.392847 -0.831470 -0.392848 -0.398724 -0.825831 -0.398724 0.624994 0.187500
-0.587938 -0.555570 -0.587938 -0.590533 -0.550005 -0.590533 0.624994 0.312500
-0.500000 -0.707107 -0.500000 -0.504227 -0.701041 -0.504227 0.624994 0.250000
-0.693520 -0.195090 -0.693520 -0.693838 -0.192785 -0.693838 0.624994 0.437500
-0.693520 0.195090 -0.693520 -0.693838 0.192785 -0.693838 0.624994 0.562500
-0.707107 0.000000 -0.707107 -0.707083 0.000000 -0.707083 0.624994 0.500000
-0.587938 0.555570 -0.587938 -0.590533 0.550005 -0.590533 0.624994 0.687500
-0.180240 -0.980785 -0.074658 -0.191046 -0.978362 -0.079134 0.687335 0.062500
-0.270598 -0.923880 -0.270598 -0.277902 -0.919523 -0.277902 0.624994 0.125000
-0.137950 0.980785 -0.137950 -0.146214 0.978362 -0.146214 0.624994 0.937500
-0.653281 -0.382683 -0.653282 -0.654500 -0.378430 -0.654500 0.624994 0.375000
-0.653281 0.382683 -0.653282 -0.654500 0.378430 -0.654500 0.624994 0.625000
-0.270598 0.707107 -0.653282 -0.272866 0.701041 -0.658803 0.562654 0.750000
-0.318189 0.555570 -0.768178 -0.319590 0.550005 -0.771569 0.562654 0.687500
-0.146446 0.923880 -0.353554 -0.150395 0.919523 -0.363109 0.562654 0.875000
-0.212607 0.831470 -0.513280 -0.215796 0.825831 -0.520981 0.562654 0.812500
-0.212607 -0.831470 -0.513280 -0.215796 -0.825831 -0.520981 0.562654 0.187500
-0.318189 -0.555570 -0.768178 -0.319590 -0.550005 -0.771569 0.562654 0.312500
-0.375330 -0.195090 -0.906128 -0.375500 -0.192785 -0.906522 0.562654 0.437500
-0.375330 0.195090 -0.906128 -0.375500 0.192785 -0.906522 0.562654 0.562500
-0.353553 0.382683 -0.853554 -0.354198 0.378430 -0.855159 0.562654 0.625000
-0.146446 -0.923880 -0.353554 -0.150395 -0.919523 -0.363109 0.562654 0.125000
-0.074658 -0.980785 -0.180240 -0.079134 -0.978362 -0.191046 0.562654 0.062500
-0.074658 0.980785 -0.180240 -0.079134 0.978362 -0.191046 0.562654 0.937500
-0.270598 -0.707107 -0.653282 -0.272866 -0.701041 -0.658803 0.562654 0.250000
-0.353553 -0.382683 -0.853554 -0.354198 -0.378430 -0.855159 0.562654 0.375000
-0.382683 0.000000 -0.923880 -0.382672 0.000000 -0.923856 0.562654 0.500000
0.000000 0.707107 -0.707107 0.000000 0.701041 -0.713095 0.500314 0.750000
0.000000 0.555570 -0.831470 0.000000 0.550005 -0.835139 0.500314 0.687500
0.000000 0.923880 -0.382684 0.000000 0.919523 -0.393017 0.500314 0.875000
0.000000 0.831470 -0.555571 0.000000 0.825831 -0.563891 0.500314 0.812500
0.000000 -0.831470 -0.555570 0.000000 -0.825831 -0.563891 0.500314 0.187500
0.000000 -0.555570 -0.831470 0.000000 -0.550005 -0.835139 0.500314 0.312500
0.000000 -0.195090 -0.980786 0.000000 -0.192785 -0.981231 0.500314 0.437500
0.000000 0.195090 -0.980786 0.000000 0.192785 -0.981231 0.500314 0.562500
0.000000 0.382683 -0.923880 0.000000 0.378430 -0.925596 0.500314 0.625000
0.000000 -0.923880 -0.382684 0.000000 -0.919523 -0.393017 0.500314 0.125000
0.000000 -0.980785 -0.195090 0.000000 -0.978362 -0.206793 0.500314 0.062500
0.000000 0.980785 -0.195091 0.000000 0.978362 -0.206793 0.500314 0.937500
0.000000 -0.707107 -0.707107 0.000000 -0.701041 -0.713095 0.500314 0.250000
0.000000 -0.382683 -0.923880 0.000000 -0.378430 -0.925596 0.500314 0.375000
0.000000 0.000000 -1.000000 0.000000 0.000000 -1.000000 0.500314 0.500000
0.270599 0.707107 -0.653282 0.272866 0.701041 -0.658803 0.437973 0.750000
0.318190 0.555570 -0.768178 0.319590 0.550005 -0.771569 0.437973 0.687500
0.146447 0.923880 -0.353554 0.150395 0.919523 -0.363109 0.437973 0.875000
0.212608 0.831470 -0.513280 0.215796 0.825831 -0.520981 0.437973 0.812500
0.212608 -0.831470 -0.513280 0.215796 -0.825831 -0.520981 0.437973 0.187500
0.318190 -0.555570 -0.768178 0.319590 -0.550005 -0.771569 0.437973 0.312500
0.270599 -0.707107 -0.653282 0.272866 -0.701041 -0.658803 0.437973 0.250000
0.375331 -0.195090 -0.906128 0.375500 -0.192785 -0.906522 0.437973 0.437500
0.375331 0.195090 -0.906128 0.375500 0.192785 -0.906522 0.437973 0.562500
0.353554 0.382683 -0.853554 0.354198 0.378430 -0.855159 0.437973 0.625000
0.146447 -0.923880 -0.353553 0.150395 -0.919523 -0.363109 0.437973 0.125000
0.074658 -0.980785 -0.180240 0.079134 -0.978362 -0.191046 0.437973 0.062500
0.074658 0.980785 -0.180240 0.079134 0.978362 -0.191046 0.437973 0.937500
0.353554 -0.382683 -0.853554 0.354198 -0.378430 -0.855159 0.437973 0.375000
0.382684 0.000000 -0.923880 0.382672 0.000000 -0.923856 0.437973 0.500000
0.500000 0.707107 -0.500000 0.504227 0.701041 -0.504227 0.375633 0.750000
0.270599 0.923880 -0.270598 0.277902 0.919523 -0.277902 0.375633 0.875000
0.392848 0.831470 -0.392848 0.398724 0.825831 -0.398724 0.375633 0.812500
0.392848 -0.831470 -0.392848 0.398724 -0.825831 -0.398724 0.375633 0.187500
0.587938 -0.555570 -0.587938 0.590533 -0.550005 -0.590533 0.375633 0.312500
0.500000 -0.707107 -0.500000 0.504227 -0.701041 -0.504227 0.375633 0.250000
0.693520 -0.195090 -0.693520 0.693838 -0.192785 -0.693838 0.375633 0.437500
0.693520 0.195090 -0.693520 0.693838 0.192785 -0.693838 0.375633 0.562500
0.587938 0.555570 -0.587938 0.590533 0.550005 -0.590533 0.375633 0.687500
0.653282 0.382683 -0.653282 0.654500 0.378430 -0.654500 0.375633 0.625000
0.270599 -0.923880 -0.270598 0.277902 -0.919523 -0.277902 0.375633 0.125000
0.137950 -0.980785 -0.137950 0.146214 -0.978362 -0.146214 0.375633 0.062500
0.137950 0.980785 -0.137950 0.146214 0.978362 -0.146214 0.375633 0.937500
0.653282 -0.382683 -0.653282 0.654500 -0.378430 -0.654500 0.375633 0.375000
0.707107 0.000000 -0.707107 0.707083 0.000000 -0.707083 0.375633 0.500000
0.653282 0.707107 -0.270598 0.658803 0.701041 -0.272866 0.313293 0.750000
0.353554 0.923880 -0.146447 0.363109 0.919523 -0.150395 0.313293 0.875000
0.513281 0.831470 -0.212608 0.520981 0.825831 -0.215796 0.313293 0.812500
0.513281 -0.831470 -0.212607 0.520981 -0.825831 -0.215796 0.313293 0.187500
0.768178 -0.555570 -0.318190 0.771569 -0.550005 -0.319590 0.313293 0.312500
0.653282 -0.707107 -0.270598 0.658803 -0.701041 -0.272866 0.313293 0.250000
0.906128 -0.195090 -0.375330 0.906522 -0.192785 -0.375500 0.313293 0.437500
0.906128 0.195090 -0.375330 0.906522 0.192785 -0.375500 0.313293 0.562500
0.768178 0.555570 -0.318190 0.771569 0.550005 -0.319590 0.313293 0.687500
0.853554 0.382683 -0.353553 0.855159 0.378430 -0.354198 0.313293 0.625000
0.353554 -0.923880 -0.146447 0.363109 -0.919523 -0.150395 0.313293 0.125000
0.180240 -0.980785 -0.074658 0.191046 -0.978362 -0.079134 0.313293 0.062500
0.180241 0.980785 -0.074658 0.191046 0.978362 -0.079134 0.313293 0.937500
0.853554 -0.382683 -0.353553 0.855159 -0.378430 -0.354198 0.313293 0.375000
0.923880 0.000000 -0.382683 0.923856 0.000000 -0.382672 0.313293 0.500000
0.707107 0.707107 0.000000 0.713095 0.701041 0.000000 0.250952 0.750000
0.382684 0.923880 0.000000 0.393017 0.919523 0.000000 0.250952 0.875000
0.555571 0.831470 0.000000 0.563891 0.825831 0.000000 0.250952 0.812500
0.555571 -0.831470 0.000000 0.563891 -0.825831 0.000000 0.250952 0.187500
0.831470 -0.555570 0.000000 0.835139 -0.550005 0.000000 0.250952 0.312500
0.707107 -0.707107 0.000000 0.713095 -0.701041 0.000000 0.250952 0.250000
0.980786 -0.195090 0.000000 0.981231 -0.192785 0.000000 0.250952 0.437500
0.980786 0.195090 0.000000 0.981231 0.192785 0.000000 0.250952 0.562500
0.831470 0.555570 0.000000 0.835139 0.550005 0.000000 0.250952 0.687500
0.923880 0.382683 0.000000 0.925596 0.378430 0.000000 0.250952 0.625000
0.382684 -0.923880 0.000000 0.393017 -0.919523 0.000000 0.250952 0.125000
0.195091 -0.980785 0.000000 0.206793 -0.978362 0.000000 0.250952 0.062500
0.195091 0.980785 0.000000 0.206793 0.978362 0.000000 0.250952 0.937500
0.923880 -0.382683 0.000000 0.925596 -0.378430 0.000000 0.250952 0.375000
1.000000 0.000000 0.000000 0.999969 0.000000 0.000000 0.250952 0.500000
0.653282 0.707107 0.270598 0.658803 0.701041 0.272866 0.188612 0.750000
0.353554 0.923880 0.146447 0.363109 0.919523 0.150395 0.188612 0.875000
0.513280 0.831470 0.212608 0.520981 0.825831 0.215796 0.188612 0.812500
0.513280 -0.831470 0.212608 0.520981 -0.825831 0.215796 0.188612 0.187500
0.768178 -0.555570 0.318190 0.771569 -0.550005 0.319590 0.188612 0.312500
0.653282 -0.707107 0.270598 0.658803 -0.701041 0.272866 0.188612 0.250000
0.906128 -0.195090 0.375330 0.906522 -0.192785 0.375500 0.188612 0.437500
0.906128 0.195090 0.375330 0.906522 0.192785 0.375500 0.188612 0.562500
0.768178 0.555570 0.318190 0.771569 0.550005 0.319590 0.188612 0.687500
0.853554 0.382683 0.353554 0.855159 0.378430 0.354198 0.188612 0.625000
0.353554 -0.923880 0.146447 0.363109 -0.919523 0.150395 0.188612 0.125000
0.180240 -0.980785 0.074658 0.191046 -0.978362 0.079134 0.188612 0.062500
0.180241 0.980785 0.074658 0.191046 0.978362 0.079134 0.188612 0.937500
0.853554 -0.382683 0.353554 0.855159 -0.378430 0.354198 0.188612 0.375000
0.923880 0.000000 0.382684 0.923856 0.000000 0.382672 0.188612 0.500000
0.500000 0.707107 0.500000 0.504227 0.701041 0.504227 0.126272 0.750000
0.270598 0.923880 0.270598 0.277902 0.919523 0.277902 0.126272 0.875000
0.392848 0.831470 0.392848 0.398724 0.825831 0.398724 0.126272 0.812500
0.392848 -0.831470 0.392848 0.398724 -0.825831 0.398724 0.126272 0.187500
0.587938 -0.555570 0.587938 0.590533 -0.550005 0.590533 0.126272 0.312500
0.500000 -0.707107 0.500000 0.504227 -0.701041 0.504227 0.126272 0.250000
0.693520 -0.195090 0.693520 0.693838 -0.192785 0.693838 0.126272 0.437500
0.693520 0.195090 0.693520 0.693838 0.192785 0.693838 0.126272 0.562500
0.587938 0.555570 0.587938 0.590533 0.550005 0.590533 0.126272 0.687500
0.653282 0.382683 0.653282 0.654500 0.378430 0.654500 0.126272 0.625000
0.270598 -0.923880 0.270598 0.277902 -0.919523 0.277902 0.126272 0.125000
0.137950 -0.980785 0.137950 0.146214 -0.978362 0.146214 0.126272 0.062500
0.137950 0.980785 0.137950 0.146214 0.978362 0.146214 0.126272 0.937500
0.653282 -0.382683 0.653282 0.654500 -0.378430 0.654500 0.126272 0.375000
0.707107 0.000000 0.707107 0.707083 0.000000 0.707083 0.126272 0.500000
0.270598 0.707107 0.653282 0.272866 0.701041 0.658803 0.063932 0.750000
0.146447 0.923880 0.353554 0.150395 0.919523 0.363109 0.063932 0.875000
0.212608 -0.831470 0.513280 0.215796 -0.825831 0.520981 0.063932 0.187500
0.318190 -0.555570 0.768178 0.319590 -0.550005 0.771569 0.063931 0.312500
0.270598 -0.707107 0.653282 0.272866 -0.701041 0.658803 0.063932 0.250000
0.375330 -0.195090 0.906127 0.375500 -0.192785 0.906522 0.063932 0.437500
0.375330 0.195090 0.906127 0.375500 0.192785 0.906522 0.063932 0.562500
0.318190 0.555570 0.768178 0.319590 0.550005 0.771569 0.063931 0.687500
0.353553 0.382683 0.853554 0.354198 0.378430 0.855159 0.063932 0.625000
0.212608 0.831470 0.513280 0.215796 0.825831 0.520981 0.063932 0.812500
0.146447 -0.923880 0.353554 0.150395 -0.919523 0.363109 0.063932 0.125000
0.074658 -0.980785 0.180240 0.079134 -0.978362 0.191046 0.063932 0.062500
0.074658 0.980785 0.180240 0.079134 0.978362 0.191046 0.063932 0.937500
0.353553 -0.382683 0.853554 0.354198 -0.378430 0.855159 0.063931 0.375000
0.382683 0.000000 0.923880 0.382672 0.000000 0.923856 0.063932 0.500000
0.000000 0.707107 0.707107 0.000000 0.701041 0.713095 0.001591 0.750000
0.000000 0.923880 0.382684 0.000000 0.919523 0.393017 0.001591 0.875000
0.000000 -0.831470 0.555570 0.000000 -0.825831 0.563891 0.001591 0.187500
-0.000000 -0.555570 0.831470 0.000000 -0.550005 0.835139 0.001591 0.312500
0.000000 -0.707107 0.707107 0.000000 -0.701041 0.713095 0.001591 0.250000
0.000000 -0.195090 0.980785 0.000000 -0.192785 0.981231 0.001591 0.437500
0.000000 0.195090 0.980785 0.000000 0.192785 0.981231 0.001591 0.562500
-0.000000 0.555570 0.831470 0.000000 0.550005 0.835139 0.001591 0.687500
-0.000000 0.382683 0.923880 0.000000 0.378430 0.925596 0.001591 0.625000
0.000000 0.831470 0.555570 0.000000 0.825831 0.563891 0.001591 0.812500
0.000000 -0.923880 0.382684 0.000000 -0.919523 0.393017 0.001591 0.125000
0.000000 -0.980785 0.195090 0.000000 -0.978362 0.206793 0.001591 0.062500
0.000000 0.980785 0.195091 0.000000 0.978362 0.206793 0.001591 0.937500
-0.000000 -0.382683 0.923880 0.000000 -0.378430 0.925596 0.001591 0.375000
-0.000000 0.000000 1.000000 0.000000 0.000000 0.999969 0.001591 0.500000
-0.000000 0.555570 0.831470 0.000000 0.550005 0.835139 0.999036 0.687500
0.000000 0.707107 0.707107 0.000000 0.701041 0.713095 0.999036 0.750000
-0.270598 0.707107 0.653281 -0.272866 0.701041 0.658803 0.936696 0.750000
0.000000 0.831470 0.555570 0.000000 0.825831 0.563891 0.999036 0.812500
0.000000 0.923880 0.382684 0.000000 0.919523 0.393017 0.999037 0.875000
-0.146446 0.923880 0.353554 -0.150395 0.919523 0.363109 0.936696 0.875000
0.000000 -0.923880 0.382684 0.000000 -0.919523 0.393017 0.999036 0.125000
0.000000 -0.831470 0.555570 0.000000 -0.825831 0.563891 0.999036 0.187500
-0.212608 -0.831470 0.513280 -0.215796 -0.825831 0.520981 0.936696 0.187500
-0.000000 -0.555570 0.831470 0.000000 -0.550005 0.835139 0.999036 0.312500
-0.318190 -0.555570 0.768178 -0.319590 -0.550005 0.771569 0.936696 0.312500
-0.270598 -0.707107 0.653281 -0.272866 -0.701041 0.658803 0.936696 0.250000
-0.000000 -0.382683 0.923880 0.000000 -0.378430 0.925596 0.999036 0.375000
0.000000 -0.195090 0.980785 0.000000 -0.192785 0.981231 0.999036 0.437500
-0.375330 -0.195090 0.906127 -0.375500 -0.192785 0.906522 0.936696 0.437500
-0.000000 0.000000 1.000000 0.000000 0.000000 0.999969 0.999036 0.500000
0.000000 0.195090 0.980785 0.000000 0.192785 0.981231 0.999036 0.562500
-0.375330 0.195090 0.906127 -0.375500 0.192785 0.906522 0.936696 0.562500
-0.318190 0.555570 0.768178 -0.319590 0.550005 0.771569 0.936696 0.687500
-0.353553 0.382683 0.853553 -0.354198 0.378430 0.855159 0.936696 0.625000
-0.212608 0.831470 0.513280 -0.215796 0.825831 0.520981 0.936696 0.812500
-0.146447 -0.923880 0.353553 -0.150395 -0.919523 0.363109 0.936696 0.125000
-0.074658 -0.980785 0.180240 -0.079134 -0.978362 0.191046 0.936696 0.062500
0.000000 0.980785 0.195091 0.000000 0.978362 0.206793 0.999037 0.937500
-0.074658 0.980785 0.180240 -0.079134 0.978362 0.191046 0.936696 0.937500
0.000000 -0.707107 0.707107 0.000000 -0.701041 0.713095 0.999036 0.250000
-0.353553 -0.382683 0.853553 -0.354198 -0.378430 0.855159 0.936696 0.375000
-0.382684 0.000000 0.923880 -0.382672 0.000000 0.923856 0.936696 0.500000
-0.000000 0.382683 0.923880 0.000000 0.378430 0.925596 0.999036 0.625000
-0.500000 0.707107 0.500000 -0.504227 0.701041 0.504227 0.874356 0.750000
-0.270598 0.923880 0.270598 -0.277902 0.919523 0.277902 0.874356 0.875000
-0.392847 -0.831470 0.392847 -0.398724 -0.825831 0.398724 0.874356 0.187500
-0.587938 -0.555570 0.587937 -0.590533 -0.550005 0.590533 0.874356 0.312500
-0.500000 -0.707107 0.500000 -0.504227 -0.701041 0.504227 0.874356 0.250000
-0.693520 -0.195090 0.693520 -0.693838 -0.192785 0.693838 0.874356 0.437500
-0.693520 0.195090 0.693520 -0.693838 0.192785 0.693838 0.874356 0.562500
-0.587938 0.555570 0.587937 -0.590533 0.550005 0.590533 0.874356 0.687500
-0.653282 0.382683 0.653281 -0.654500 0.378430 0.654500 0.874356 0.625000
-0.392847 0.831470 0.392847 -0.398724 0.825831 0.398724 0.874356 0.812500
-0.270598 -0.923880 0.270598 -0.277902 -0.919523 0.277902 0.874356 0.125000
-0.137949 -0.980785 0.137950 -0.146214 -0.978362 0.146214 0.874356 0.062500
-0.137950 0.980785 0.137950 -0.146214 0.978362 0.146214 0.874356 0.937500
-0.653282 -0.382683 0.653281 -0.654500 -0.378430 0.654500 0.874356 0.375000
-0.707107 0.000000 0.707107 -0.707083 0.000000 0.707083 0.874356 0.500000
-0.653281 0.707107 0.270598 -0.658803 0.701041 0.272866 0.812015 0.750000
-0.353553 0.923880 0.146447 -0.363109 0.919523 0.150395 0.812016 0.875000
-0.513280 -0.831470 0.212607 -0.520981 -0.825831 0.215796 0.812015 0.187500
-0.353553 -0.923880 0.146446 -0.363109 -0.919523 0.150395 0.812015 0.125000
-0.768178 -0.555570 0.318189 -0.771569 -0.550005 0.319590 0.812015 0.312500
-0.653281 -0.707107 0.270598 -0.658803 -0.701041 0.272866 0.812015 0.250000
-0.906127 -0.195090 0.375330 -0.906522 -0.192785 0.375500 0.812015 0.437500
-0.906127 0.195090 0.375330 -0.906522 0.192785 0.375500 0.812015 0.562500
-0.768178 0.555570 0.318189 -0.771569 0.550005 0.319590 0.812015 0.687500
-0.853553 0.382683 0.353553 -0.855159 0.378430 0.354198 0.812015 0.625000
-0.513280 0.831470 0.212607 -0.520981 0.825831 0.215796 0.812015 0.812500
-0.180240 -0.980785 0.074658 -0.191046 -0.978362 0.079134 0.812016 0.062500
-0.180240 0.980785 0.074658 -0.191046 0.978362 0.079134 0.812016 0.937500
-0.853553 -0.382683 0.353553 -0.855159 -0.378430 0.354198 0.812015 0.375000
-0.923880 0.000000 0.382683 -0.923856 0.000000 0.382672 0.812015 0.500000
0.000000 -1.000000 0.000000 0.000000 -1.000000 0.000000 0.001429 0.000000
0.000000 1.000000 0.000000 0.000000 1.000000 0.000000 0.998947 1.000000
-0.137949 -0.980785 -0.137950 -0.146214 -0.978362 -0.146214 0.624994 0.062500
0.000000 1.000000 0.000000 0.000000 1.000000 0.000000 0.001424 1.000000
0.000000 -1.000000 0.000000 0.000000 -1.000000 0.000000 0.999109 0.000000
0.000000 -0.980785 0.195090 0.000000 -0.978362 0.206793 0.999037 0.062500
3 0 1 2
3 3 4 5
3 6 7 8
3 9 10 11
3 12 13 14
3 15 16 17
3 18 19 20
3 21 22 2
3 23 5 1
3 3 24 8
3 25 11 7
3 26 17 10
3 13 27 20
3 21 28 19
3 7 11 29
3 17 30 31
3 14 20 32
3 28 33 34
3 2 1 35
3 4 36 37
3 8 7 38
3 10 31 29
3 39 14 40
3 16 41 30
3 19 34 32
3 2 42 33
3 5 37 35
3 4 8 43
3 29 44 45
3 30 46 47
3 40 32 48
3 34 33 49
3 42 35 50
3 37 36 51
3 38 45 52
3 31 47 44
3 40 53 54
3 41 55 46
3 32 34 56
3 42 57 49
3 37 58 50
3 43 52 51
3 44 59 60
3 46 61 62
3 53 48 63
3 56 49 64
3 57 50 65
3 58 51 66
3 45 60 67
3 47 62 59
3 53 68 69
3 55 70 61
3 48 56 71
3 57 72 64
3 58 73 65
3 52 67 66
3 59 74 75
3 61 76 77
3 68 63 78
3 64 79 80
3 72 65 81
3 73 66 82
3 60 75 83
3 62 77 74
3 68 84 85
3 70 86 76
3 63 71 80
3 72 87 79
3 73 88 81
3 67 83 82
3 75 74 89
3 76 90 91
3 84 78 92
3 79 93 94
3 87 81 95
3 88 82 96
3 75 97 98
3 77 91 89
3 84 99 100
3 86 101 90
3 78 80 94
3 87 102 93
3 88 103 95
3 83 98 96
3 97 89 104
3 90 105 106
3 99 92 107
3 93 108 109
3 102 95 110
3 103 96 111
3 97 112 113
3 91 106 104
3 99 114 115
3 101 116 105
3 92 94 109
3 102 117 108
3 103 118 110
3 98 113 111
3 112 104 119
3 105 120 121
3 114 107 122
3 108 123 124
3 117 110 125
3 118 111 126
3 112 127 128
3 106 121 119
3 114 129 130
3 116 131 120
3 107 109 124
3 117 132 123
3 118 133 125
3 113 128 126
3 127 119 134
3 120 135 136
3 129 122 137
3 123 138 139
3 132 125 140
3 133 126 141
3 127 142 143
3 121 136 134
3 129 144 145
3 131 146 135
3 122 124 139
3 123 132 147
3 133 148 140
3 128 143 141
3 142 134 149
3 135 150 151
3 144 137 152
3 138 153 154
3 147 140 155
3 148 141 156
3 142 157 158
3 136 151 149
3 144 159 160
3 146 161 150
3 137 139 154
3 138 147 162
3 148 163 155
3 143 158 156
3 157 149 164
3 151 150 165
3 159 152 166
3 153 167 168
3 162 155 169
3 163 156 170
3 157 171 172
3 151 173 164
3 159 174 175
3 161 176 165
3 152 154 168
3 153 162 177
3 163 178 169
3 158 172 170
3 171 164 179
3 173 165 180
3 174 166 181
3 167 182 183
3 177 169 184
3 178 170 185
3 171 186 187
3 173 188 179
3 174 189 190
3 176 191 180
3 166 168 183
3 167 177 192
3 178 193 184
3 172 187 185
3 194 195 196
3 197 198 199
3 200 201 202
3 203 204 205
3 206 207 208
3 209 210 211
3 194 212 213
3 197 214 196
3 200 215 216
3 217 218 199
3 201 219 205
3 203 206 220
3 209 221 208
3 222 213 211
3 212 196 223
3 214 199 224
3 215 202 225
3 204 226 227
3 220 208 228
3 221 211 229
3 212 230 231
3 214 232 223
3 215 233 234
3 218 235 224
3 202 205 227
3 204 220 236
3 221 237 228
3 213 231 229
3 230 223 238
3 232 224 239
3 225 240 241
3 226 242 243
3 236 228 244
3 237 229 245
3 230 246 247
3 232 248 238
3 233 241 249
3 235 250 239
3 225 227 243
3 226 236 251
3 237 252 244
3 231 247 245
3 253 12 39
3 15 254 16
3 253 39 255
3 16 254 41
3 253 255 54
3 41 254 55
3 253 54 69
3 55 256 70
3 253 69 85
3 70 256 86
3 253 85 100
3 86 256 101
3 253 100 115
3 101 256 116
3 253 115 130
3 116 256 131
3 253 130 145
3 131 256 146
3 253 145 160
3 146 256 161
3 253 160 175
3 161 256 176
3 253 175 190
3 176 256 191
3 257 258 216
3 217 254 218
3 257 216 234
3 218 254 235
3 257 234 249
3 235 254 250
3 246 238 25
3 257 249 12
3 248 239 26
3 240 27 13
3 250 254 15
3 242 21 18
3 244 0 22
3 252 245 3
3 246 6 24
3 238 248 9
3 241 13 12
3 239 250 15
3 243 18 27
3 251 22 21
3 252 23 0
3 247 24 3
3 22 0 2
3 23 3 5
3 24 6 8
3 25 9 11
3 39 12 14
3 26 15 17
3 27 18 20
3 28 21 2
3 0 23 1
3 4 3 8
3 6 25 7
3 9 26 10
3 14 13 20
3 18 21 19
3 38 7 29
3 10 17 31
3 40 14 32
3 19 28 34
3 42 2 35
3 5 4 37
3 43 8 38
3 11 10 29
3 255 39 40
3 17 16 30
3 20 19 32
3 28 2 33
3 1 5 35
3 36 4 43
3 38 29 45
3 31 30 47
3 53 40 48
3 56 34 49
3 57 42 50
3 58 37 51
3 43 38 52
3 29 31 44
3 255 40 54
3 30 41 46
3 48 32 56
3 33 42 49
3 35 37 50
3 36 43 51
3 45 44 60
3 47 46 62
3 68 53 63
3 71 56 64
3 72 57 65
3 73 58 66
3 52 45 67
3 44 47 59
3 54 53 69
3 46 55 61
3 63 48 71
3 49 57 64
3 50 58 65
3 51 52 66
3 60 59 75
3 62 61 77
3 84 68 78
3 71 64 80
3 87 72 81
3 88 73 82
3 67 60 83
3 59 62 74
3 69 68 85
3 61 70 76
3 78 63 80
3 64 72 79
3 65 73 81
3 66 67 82
3 97 75 89
3 77 76 91
3 99 84 92
3 80 79 94
3 102 87 95
3 103 88 96
3 83 75 98
3 74 77 89
3 85 84 100
3 76 86 90
3 92 78 94
3 79 87 93
3 81 88 95
3 82 83 96
3 112 97 104
3 91 90 106
3 114 99 107
3 94 93 109
3 117 102 110
3 118 103 111
3 98 97 113
3 89 91 104
3 100 99 115
3 90 101 105
3 107 92 109
3 93 102 108
3 95 103 110
3 96 98 111
3 127 112 119
3 106 105 121
3 129 114 122
3 109 108 124
3 132 117 125
3 133 118 126
3 113 112 128
3 104 106 119
3 115 114 130
3 105 116 120
3 122 107 124
3 108 117 123
3 110 118 125
3 111 113 126
3 142 127 134
3 121 120 136
3 144 129 137
3 124 123 139
3 147 132 140
3 148 133 141
3 128 127 143
3 119 121 134
3 130 129 145
3 120 131 135
3 137 122 139
3 138 123 147
3 125 133 140
3 126 128 141
3 157 142 149
3 136 135 151
3 159 144 152
3 139 138 154
3 162 147 155
3 163 148 156
3 143 142 158
3 134 136 149
3 145 144 160
3 135 146 150
3 152 137 154
3 153 138 162
3 140 148 155
3 141 143 156
3 171 157 164
3 173 151 165
3 174 159 166
3 154 153 168
3 177 162 169
3 178 163 170
3 158 157 172
3 149 151 164
3 160 159 175
3 150 161 165
3 166 152 168
3 167 153 177
3 155 163 169
3 156 158 170
3 186 171 179
3 188 173 180
3 189 174 181
3 168 167 183
3 192 177 184
3 193 178 185
3 172 171 187
3 164 173 179
3 175 174 190
3 165 176 180
3 181 166 183
3 182 167 192
3 169 178 184
3 170 172 185
3 212 194 196
3 214 197 199
3 215 200 202
3 219 203 205
3 220 206 208
3 221 209 211
3 222 194 213
3 195 197 196
3 258 200 216
3 198 217 199
3 202 201 205
3 204 203 220
3 207 209 208
3 210 222 211
3 230 212 223
3 232 214 224
3 233 215 225
3 205 204 227
3 236 220 228
3 237 221 229
3 213 212 231
3 196 214 223
3 216 215 234
3 199 218 224
3 225 202 227
3 226 204 236
3 208 221 228
3 211 213 229
3 246 230 238
3 248 232 239
3 233 225 241
3 227 226 243
3 251 236 244
3 252 237 245
3 231 230 247
3 223 232 238
3 234 233 249
3 224 235 239
3 240 225 243
3 242 226 251
3 228 237 244
3 229 231 245
3 6 246 25
3 9 248 26
3 241 240 13
3 243 242 18
3 251 244 22
3 23 252 3
3 247 246 24
3 25 238 9
3 249 241 12
3 26 239 15
3 240 243 27
3 242 251 21
3 244 252 0
3 245 247 3
