ply
format ascii 1.0
comment Created by Blender 2.74 (sub 0) - www.blender.org, source file: ''
element vertex 28
property float x
property float y
property float z
property float nx
property float ny
property float nz
property uchar red
property uchar green
property uchar blue
element face 12
property list uchar uint vertex_indices
end_header
1.000000 -1.000000 1.000000 0.000000 -1.000000 0.000000 255 255 255
-1.000000 -1.000000 1.000000 0.000000 -1.000000 0.000000 255 255 255
-1.000000 -1.000000 -1.000000 0.000000 -1.000000 0.000000 255 255 255
1.000000 1.000000 -0.999999 -0.000000 1.000000 0.000000 69 97 56
-1.000000 1.000000 -1.000000 -0.000000 1.000000 0.000000 69 97 56
-1.000000 1.000000 1.000000 -0.000000 1.000000 0.000000 2 0 255
1.000000 1.000000 -0.999999 1.000000 0.000001 0.000001 69 97 56
0.999999 1.000000 1.000001 1.000000 0.000001 0.000001 2 0 255
1.000000 -1.000000 1.000000 1.000000 0.000001 0.000001 6 5 243
0.999999 1.000000 1.000001 -0.000000 0.000000 1.000000 2 0 255
-1.000000 1.000000 1.000000 -0.000000 0.000000 1.000000 2 0 255
-1.000000 -1.000000 1.000000 -0.000000 0.000000 1.000000 2 0 255
-1.000000 1.000000 1.000000 -1.000000 0.000000 0.000000 255 255 255
-1.000000 1.000000 -1.000000 -1.000000 0.000000 0.000000 255 255 255
-1.000000 -1.000000 -1.000000 -1.000000 0.000000 0.000000 255 255 255
1.000000 -1.000000 -1.000000 0.000000 0.000000 -1.000000 69 97 56
-1.000000 -1.000000 -1.000000 0.000000 0.000000 -1.000000 69 97 56
-1.000000 1.000000 -1.000000 0.000000 0.000000 -1.000000 69 97 56
1.000000 -1.000000 -1.000000 0.000000 -1.000000 0.000000 255 255 255
0.999999 1.000000 1.000001 -0.000000 1.000000 -0.000000 2 0 255
1.000000 -1.000000 -1.000000 1.000000 0.000000 0.000000 69 97 56
1.000000 1.000000 -0.999999 1.000000 0.000000 0.000000 69 97 56
1.000000 -1.000000 1.000000 1.000000 0.000000 0.000000 6 5 243
1.000000 -1.000000 1.000000 0.000000 -0.000000 1.000000 2 0 255
-1.000000 -1.000000 1.000000 -1.000000 0.000000 0.000000 255 255 255
1.000000 1.000000 -0.999999 0.000001 0.000001 -1.000000 69 97 56
1.000000 -1.000000 -1.000000 0.000001 0.000001 -1.000000 69 97 56
-1.000000 1.000000 -1.000000 0.000001 0.000001 -1.000000 69 97 56
3 0 1 2
3 3 4 5
3 6 7 8
3 9 10 11
3 12 13 14
3 15 16 17
3 18 0 2
3 19 3 5
3 20 21 22
3 23 9 11
3 24 12 14
3 25 26 27
