ply
format ascii 1.0
comment Created by Blender 2.74 (sub 0) - www.blender.org, source file: ''
element vertex 4
property float x
property float y
property float z
property float nx
property float ny
property float nz
property uchar red
property uchar green
property uchar blue
element face 2
property list uchar uint vertex_indices
end_header
1.000000 -1.000000 0.000000 -0.000000 0.000000 1.000000 0 255 11
1.000000 1.000000 0.000000 -0.000000 0.000000 1.000000 255 0 11
-1.000000 1.000000 0.000000 -0.000000 0.000000 1.000000 255 241 0
-1.000000 -1.000000 0.000000 0.000000 0.000000 1.000000 20 0 255
3 0 1 2
3 3 0 2
